<svg fill="#fff" height="300" viewBox="0 0 705 300" width="705" xmlns="http://www.w3.org/2000/svg"><path d="m0 0h705v300h-705z" fill="#a831db"/><path d="m217.037 137.014.743 8.66 9.061-.835-11.848 13.672-.201.271-1.228 1.416-18.024-17.609-10.8 11.815-4.165-3.848h-14.357l.072-.336c2.024-9.856 10.813-17.015 20.888-17.015 5.601 0 10.878 2.147 14.881 6.047l7.042-7.043c-5.885-5.781-13.658-8.963-21.923-8.963-15.585 0-28.914 11.634-30.996 27.064l-.033.246h-11.162l.032-.31c2.18-21.717 20.307-38.085 42.159-38.085 11.227 0 21.781 4.333 29.762 12.21l7.042-7.043c-9.862-9.758-22.919-15.126-36.804-15.126-13.238 0-25.874 4.954-35.575 13.949-9.649 8.951-15.54 21.076-16.588 34.146l-.019.259h-11.091v9.364h11.213l.026.253c2.852 26.618 25.222 46.692 52.028 46.692 13.885 0 26.941-5.368 36.804-15.127l-7.043-7.042c-7.98 7.877-18.541 12.209-29.761 12.209-21.122 0-39.178-15.766-41.991-36.668l-.045-.317h11.22l.045.233c2.697 14.875 15.638 25.668 30.771 25.668 8.265 0 16.038-3.182 21.923-8.963l-7.043-7.043c-4.003 3.9-9.28 6.047-14.88 6.047-9.533 0-17.979-6.409-20.54-15.586l-.097-.356h10.367l8.388 7.754 10.625-11.627 18.198 17.778 19.46-22.364.162 8.498 8.885-1.261-.323-24.491z"/><path d="m233.735 159.959-.162-8.498-19.46 22.364-18.198-17.778-10.625 11.627-8.388-7.754h-10.367l.097.356c2.561 9.177 11.007 15.586 20.54 15.586 5.6 0 10.877-2.147 14.88-6.047l7.043 7.043c-5.885 5.781-13.658 8.963-21.923 8.963-15.133 0-28.074-10.793-30.771-25.668l-.045-.233h-11.22l.045.317c2.813 20.908 20.869 36.668 41.991 36.668 11.227 0 21.781-4.332 29.761-12.209l7.043 7.042c-9.863 9.759-22.919 15.127-36.804 15.127-26.813 0-49.176-20.074-52.028-46.692l-.026-.253h-11.213v-9.364h11.091l.019-.259c1.048-13.07 6.939-25.195 16.588-34.146 9.701-8.995 22.337-13.949 35.575-13.949 13.885 0 26.942 5.368 36.804 15.126l-7.042 7.043c-7.981-7.877-18.541-12.21-29.762-12.21-21.852 0-39.979 16.375-42.159 38.085l-.032.31h11.162l.033-.246c2.082-15.43 15.404-27.064 30.996-27.064 8.265 0 16.038 3.182 21.923 8.963l-7.042 7.043c-4.003-3.9-9.28-6.047-14.881-6.047-10.082 0-18.864 7.153-20.888 17.015l-.072.336h14.357l4.165 3.848 10.8-11.815 18.024 17.609 1.228-1.416.201-.271 11.848-13.672-9.061.835-.743-8.66 25.26-2.807.323 24.491z"/><path d="m345.614 136.633-13.781 13.781-3.841-3.835h-.718l-4.094 4.094v.717l7.256 7.25h-10.263l-.336.336v4.669l.336.337h7.14v3.744h-7.14l-.336.336v4.67l.336.336h7.14v7.689h8.763v-7.689h7.236l.336-.336v-4.67l-.336-.336h-7.236v-3.744h7.236l.336-.337v-4.669l-.336-.336h-10.211l16.368-17.804-.013-.356z"/><path d="m333.101 158.64h10.218l.336.336v4.669l-.336.337h-7.243v3.744h7.243l.336.336v4.67l-.336.336h-7.243v7.689h-8.763v-7.689h-7.14l-.336-.336v-4.67l.336-.336h7.14v-3.744h-7.14l-.336-.337v-4.669l.336-.336h10.257l-7.25-7.256v-.718l4.094-4.093h.718l3.835 3.834 13.787-13.781 3.842 3.841.006.356z"/><path d="m369.116 120.316v-8.271l-.356-.285-16.155.291h-19.084v-8.692l-.317-.336h-11.447l-.284.343v8.685h-19.686l-15.346-.284-.951.95.278 14.473v3.616l-.983-3.311c-1.041-3.506-2.392-6.733-4.119-9.863l-.22-.019-8.304 4.902-.161.284c1.92 4.417 3.44 9.326 4.928 15.883l.038.007 8.828-5.445v13.309l-1.093.433c-4.708 1.863-8.976 3.279-13.038 4.333-.071.084-.187.375-.271.66l2.535 10.463c.097.072.2.136.258.162 2.937-1.39 5.756-2.949 8.634-4.773l2.936-1.856-.285 3.46c-1.118 13.704-4.824 23.683-12.377 33.325l6.628 6.784c.233.239.55.356.88.336.336-.019.646-.194.847-.465 9.358-12.553 13.529-27.55 13.529-48.626v-30.525h57.621l16.239.298z"/><path d="m294.951 120.284v30.524c0 21.07-4.171 36.067-13.529 48.626-.2.272-.51.44-.847.466-.33.019-.653-.104-.879-.337l-6.629-6.783c7.56-9.636 11.259-19.622 12.378-33.325l.284-3.46-2.936 1.856c-2.877 1.824-5.697 3.382-8.633 4.773-.058-.02-.162-.084-.259-.162l-2.535-10.464c.084-.291.201-.575.272-.659 4.061-1.055 8.329-2.477 13.037-4.333l1.093-.434v-13.309l-8.827 5.445-.039-.006c-1.481-6.558-3.007-11.473-4.928-15.883l.162-.285 8.303-4.902.22.02c1.733 3.13 3.079 6.357 4.12 9.862l.983 3.311v-3.615l-.278-14.473.95-.951 15.347.285h19.685v-8.686l.285-.342h11.447l.317.336v8.692h19.084l16.154-.291.356.284v8.272l-.304.258-16.238-.297h-57.616z"/><path d="m364.99 179.031c-.899-7.457-1.294-16.026-1.294-27.776 0-4.767.091-9.927.188-15.385l.026-2.613.258-8.071-.756-.763-9.856.174h-44.319l-9.37-.181-.537.524.265 8.284v21.962c0 15.25-1.41 26.38-8.588 37.994 1.067.88 6.609 5.452 7.275 6.002 2.296-3.35 4.1-6.784 5.51-10.503l.517-1.455c1.009-2.89 1.811-5.969 2.438-9.416l.123-.679.362.589c5.232 8.562 14.325 13.671 24.323 13.671 9.856 0 18.877-5.005 24.142-13.387l.388-.614.097.718c.207 1.494.413 2.787.633 3.964.395 2.179 1.339 6.396 3.163 10.14 2.179 4.463 4.869 6.726 7.993 6.726.582 0 1.119-.071 1.61-.207l.065-.019c.608-.181 1.138-.472 1.63-.893l5.988-4.921v-10.858l-8.2 4.766-.53-.032c-2.393-.169-2.749-2.542-3.544-7.741zm-56.522-32.801v-14.26h25.661l-2.535 2.444h-.104c-8.892.026-17.111 4.107-22.544 11.201zm46.174 1.61-.006.252h-3.951l-.246-3.453-3.499 4.507c3.402 3.797 5.277 8.673 5.277 13.749 0 11.382-9.261 20.65-20.649 20.65-11.382 0-20.649-9.261-20.649-20.65 0-11.388 9.26-20.649 20.649-20.649 1.158 0 2.341.103 3.505.304l3.764-3.757c.084-.091 1.261-1.242 2.38-2.348l-3.169-.239v-4.236l16.918-.498.084.084c.09.116.174.2-.408 16.284z"/><path d="m456.13 177.679 1.604-1.766c5.684-6.247 10.127-12.584 13.361-23.197.2-.614.226-.899.226-.996 0-.123-.02-.233-.298-.575l-4.41-4.67-7.049.272h-21.626l-12.65-.175-.485.479v8.672l.563.55 11.945-.175h21.464l-.168.369c-.058.129-.13.297-.207.491-.822 1.979-2.755 6.623-8.543 12.275l-1.261 1.3-1.268-1.229c-3.686-3.583-6.642-7.23-9.028-11.149l-.763-.246-8.148 3.557c2.923 5.251 6.764 10.574 10.308 14.292l1.559 1.63-1.953 1.125c-8.252 4.753-15.741 7.787-22.874 9.261l5.477 8.731c.11-.02.239-.046.33-.065l.33-.071c10.929-2.594 19.058-7.437 24.924-11.376l.989-.666.99.666c5.561 3.738 14.279 8.549 24.219 10.257.349.052.582.071.737.084l5.322-9.862c-8.607-1.074-15.669-4.029-21.451-6.778z"/><path d="m474.412 195.347c-.155-.013-.388-.033-.737-.084-9.94-1.714-18.658-6.525-24.219-10.257l-.99-.666-.989.666c-5.866 3.932-13.995 8.782-24.924 11.376l-.33.071c-.097.019-.22.045-.33.064l-5.477-8.73c7.139-1.481 14.628-4.514 22.874-9.261l1.953-1.125-1.559-1.63c-3.544-3.718-7.385-9.041-10.308-14.292l8.148-3.557.763.246c2.387 3.919 5.342 7.566 9.028 11.149l1.268 1.229 1.261-1.3c5.788-5.659 7.722-10.296 8.543-12.275.077-.194.149-.362.207-.491l.168-.369h-21.464l-11.945.175-.563-.55v-8.672l.486-.479 12.649.175h21.626l7.049-.272 4.41 4.669c.272.35.298.453.298.576 0 .097-.019.382-.226.996-3.234 10.606-7.683 16.944-13.361 23.197l-1.604 1.766 2.153 1.028c5.782 2.755 12.844 5.704 21.452 6.778z"/><path d="m428.962 143.533c.123-.052.31-.142.381-.181 8.142-4.702 11.938-11.473 11.938-21.296v-4.986h8.705v9.978l-.103 8.485c0 5.251.517 6.771 12.125 6.771 10.147 0 11.654-1.009 13.432-2.781 1.346-1.526 2.341-4.19 2.814-12.158-.091-.039-.22-.084-.388-.142l-7.729-2.761c-.439 5.328-.97 8.349-5.102 8.465-.104 0-.776.006-.886.006-3.525 0-4.488-1.054-4.488-4.895v-10.399l.246-8.427-.822-.827-9.222.245h-7.922l-9.636-.245-1.002 1.015.22 5.652v2.483c0 10.108-2.49 14.972-9.843 19.072l6.958 6.719c.149.116.253.175.324.207z"/><path d="m431.529 117.529v-2.483l-.22-5.653 1.003-1.015 9.636.246h7.922l9.222-.246.821.828-.246 8.426v10.399c0 3.842.964 4.896 4.488 4.896.104 0 .783 0 .886-.007 4.133-.116 4.657-3.136 5.103-8.465l7.728 2.761c.175.059.298.104.388.143-.472 7.967-1.474 10.632-2.813 12.158-1.778 1.778-3.285 2.781-13.432 2.781-11.615 0-12.126-1.514-12.126-6.771l.104-8.485v-9.972h-8.705v4.992c0 9.824-3.796 16.588-11.938 21.296-.071.033-.259.13-.382.181-.064-.032-.174-.097-.317-.213l-6.958-6.719c7.34-4.107 9.836-8.97 9.836-19.078z"/><path d="m420.128 150.75-.155-7.644c-2.432.776-4.812 1.488-7.075 2.102l-2.238.608v-12.216l8.278.2.685-.666v-7.386l-.517-.504-8.446.201v-19.596l-.718-.717h-8.478l-.86.86v19.556l-11.227-.304-.66.64v7.308l.621.602 11.266-.304v14.829l-1.358.323c-3.286.782-6.687 1.507-9.972 2.199l-1.093.233-.453.795 3.117 9.112c2.399-.64 4.908-1.364 7.469-2.153l2.296-.712v22.473c0 3.247-1.254 4.695-4.32 4.986-1.326.155-3.11.324-6.312.388l4.534 10.121c.026.058.045.11.064.155.065 0 .143.007.233.007 13.148 0 16.362-2.639 16.362-13.439l-.505-23.462v-4.243l1.423-.459c2.755-.886 5.129-1.649 7.049-2.412l.026-.013c.964-.343.964-.343.964-1.468z"/><path d="m419.125 152.231c-1.92.77-4.294 1.533-7.049 2.412l-1.422.459v4.243l.504 23.462c0 10.8-3.208 13.439-16.362 13.439-.09 0-.168 0-.232-.007-.02-.045-.039-.097-.065-.155l-4.534-10.121c3.202-.064 4.987-.233 6.312-.388 3.072-.291 4.32-1.739 4.32-4.986v-22.473l-2.296.712c-2.554.795-5.063 1.513-7.469 2.153l-3.117-9.112.453-.795 1.093-.233c3.285-.699 6.686-1.417 9.972-2.199l1.358-.323v-14.829l-11.266.304-.621-.602v-7.308l.66-.64 11.227.304v-19.556l.86-.86h8.478l.718.717v19.596l8.446-.201.517.504v7.386l-.685.666-8.278-.2v12.216l2.238-.608c2.263-.621 4.643-1.326 7.075-2.102l.155 7.644c0 1.125 0 1.125-.977 1.468z"/><path d="m569.148 195.146h11.097l-.491-44.118v-30.052l.278-14.829-.543-.576-14.422.285h-55.241l-14.971-.285-.524.524.278 14.861v31.579l-.492 42.618h11.098v-3.809h63.933zm-63.94-80.411h63.934v39.727l-.395-.213c-2.729-1.494-5.374-3.292-7.851-5.336l-2.955-2.438 7.773.162.479-.472v-6.014l-.447-.434-14.078.317-.382-.756c-.259-.518-.543-.945-.815-1.359-.414-.627-.808-1.215-1.086-2.056l-.595-1.772 13.257.116.466-.465-.013-5.517-.446-.446h-10.367l3.033-3.486c.977-1.041 1.998-2.063 2.968-3.026l-5.775-5.374c-3.104 3.324-6.021 7.126-9.183 11.97l-.077.123h-3.777l.614-1.765c.796-2.29 1.85-5.659 2.762-8.828l-9.494-2.16c-.795 3.124-2.037 7.638-3.492 11.764l-.317.905-.518-.013-.077-.11c-2.419-3.44-4.398-7.023-6.208-11.253l-5.866 3.693c-.123.071-.479.278-.55.459-.052.123-.006.278.007.311.485 1.047 1.157 2.49 1.888 3.899l1.772 2.885h-7.754l-.466.459-.051 5.717.265.258 15.857-.116-3.725 5.917h-1.927l-13.245-.304-.2.24v6.363l.362.324 9.707-.278-2.186 2.334c-3.02 3.221-6.422 6.176-10.412 9.041l-.42.298v-43.291zm42.34 32.148.382.575c.181.266.355.544.536.822.434.672.886 1.371 1.371 1.998l1.559 2.005-8.433.297h-15.256-2.49l1.43-2.043c.368-.531.769-1.061 1.164-1.591.381-.505.756-1.009 1.112-1.514l.388-.549zm-14.454-6.099 1.029-1.914c.329-.608.614-1.099.885-1.565.311-.543.608-1.048.938-1.688l.343-.743h3.854l.285.911c.356.951.737 1.753 1.099 2.523l.311.659.75 1.804h-9.494zm-27.886 41.674v-23.63l5.782 6.014c.045.045.2.2.789-.168l.155-.104c1.572-1.203 3.208-2.606 4.999-4.274l2.244-2.096v4.676l-.11 9.131c0 5.944 0 7.541 19.764 7.541 14.731 0 17.887-.44 20.448-1.869 1.966-1.015 3.434-4.087 4.152-8.646.097-.57-.097-.621-.213-.654l-8.621-2.658c-.388 2.251-.996 3.777-2.632 4.43-2.173.97-4.372 1.061-13.671 1.061-1.902 0-3.447.032-4.695.058-3.156.071-4.463.097-5.122-.55-.427-.42-.511-1.047-.511-2.069v-10.018h16.032v1.326c0 1.559-1.268 2.833-2.833 2.833h-5.704l2.005 5.633c.045 0 .103.006.181.006h6.642c6.266 0 7.45-.996 7.45-6.273v-10.166l2.308 2.477c2.93 3.143 5.84 5.71 8.66 7.624l.097.071c.31.259.517.401.653.479.039-.045.084-.097.142-.168l5.543-7.191v27.181h-63.934z"/></svg>