<svg fill="#fff" height="70" width="70" xmlns="http://www.w3.org/2000/svg"><rect fill="#ff7e00" height="100%" width="100%"/><circle cx="20" cy="10" r="2"/><circle cx="35" cy="10" r="2"/><circle cx="55" cy="10" r="2"/><circle cx="20" cy="15" r="2"/><circle cx="30" cy="15" r="2"/><circle cx="35" cy="15" r="2"/><circle cx="40" cy="15" r="2"/><circle cx="45" cy="15" r="2"/><circle cx="50" cy="15" r="2"/><circle cx="55" cy="15" r="2"/><circle cx="60" cy="15" r="2"/><circle cx="20" cy="20" r="2"/><circle cx="35" cy="20" r="2"/><circle cx="55" cy="20" r="2"/><circle cx="10" cy="25" r="2"/><circle cx="20" cy="25" r="2"/><circle cx="25" cy="25" r="2"/><circle cx="45" cy="25" r="2"/><circle cx="10" cy="30" r="2"/><circle cx="20" cy="30" r="2"/><circle cx="30" cy="30" r="2"/><circle cx="35" cy="30" r="2"/><circle cx="40" cy="30" r="2"/><circle cx="45" cy="30" r="2"/><circle cx="50" cy="30" r="2"/><circle cx="55" cy="30" r="2"/><circle cx="60" cy="30" r="2"/><circle cx="10" cy="35" r="2"/><circle cx="20" cy="35" r="2"/><circle cx="35" cy="35" r="2"/><circle cx="20" cy="40" r="2"/><circle cx="35" cy="40" r="2"/><circle cx="40" cy="40" r="2"/><circle cx="45" cy="40" r="2"/><circle cx="50" cy="40" r="2"/><circle cx="55" cy="40" r="2"/><circle cx="20" cy="45" r="2"/><circle cx="20" cy="50" r="2"/><circle cx="35" cy="50" r="2"/><circle cx="45" cy="50" r="2"/><circle cx="55" cy="50" r="2"/><circle cx="20" cy="55" r="2"/><circle cx="35" cy="55" r="2"/><circle cx="45" cy="55" r="2"/><circle cx="55" cy="55" r="2"/><circle cx="20" cy="60" r="2"/><circle cx="30" cy="60" r="2"/><circle cx="45" cy="60" r="2"/><circle cx="60" cy="60" r="2"/></svg>
