<svg viewBox="0 0 400.5 400.5" xmlns="http://www.w3.org/2000/svg"><path d="m0 0h400.5v400.5h-400.5z" fill="#8ec2e8"/><path d="m68 129.9c2.1-.7 61.6 50.1 66.1 57.6 3.9 6.5 2.2 6.7 2.2 6.7s-7.5 6.3-38.5-21.9c-31.2-28.2-33.2-41.3-29.8-42.4zm-17.2 12.3s15.6 6.8 19.8 10c2.4 1.8 46.6 44 55.5 49.1 2.8 1.6 3 4.1 2.2 5.2-1.5 2-14.9 9.5-27.5 5.3-13.5-4.5-20.5-25.5-27.1-34.7-5.2-7.1-21.4-26.9-22.1-28.7s-2.3-5.2-.8-6.4" fill="#f9f9f9"/><path d="m156.2 209.3c1.6-1.2 23.2 14.7 40.3 30.2 16.3 14.7 40.3 38 46 46.8s-42.3-18.8-54.1-29.9c-10.8-10.3-46-36.3-32.2-47.1zm-12 17.3s-20.5 14.1 8.7 38.3 25.4 22.2 35 28.1c6.9 4.3 20.3 14.3 28.2 16.3 1.8.5 8.3-.1 4.3-5.8-3.9-5.7-65.3-73.6-73.2-78-1.3-.7-3 1.1-3 1.1z" fill="#f9f9f9"/><path d="m160 190.4s5.2.6 5.1 6.8c-.1 6.3-3.8 8.7-7.6 8.9s-5.8-7-5.1-8.9 4.2-7.7 7.6-6.8z" fill="#23244c"/><path d="m143.6 197.4s-9 .6-12.6 9.4c-.7 1.7-3.6 4.9-2.6 9.8.2.8-1.4 3.8 3.8 7.6 6.6 4.7 18.1-12.4 19.4-16.2 1.3-3.9-.2-6.6-2.6-8.5-2.4-2-5.4-2.1-5.4-2.1z"/><path d="m143.5 204.8c-.5-.2-1.6-.1-3.6 2.8s-3.3 6.2-3.3 6.2c.1.5.8.8 1 .6.4-.3 1.4-3.1 2.8-4.7 1.3-1.7 5.3-4 3.1-4.9z" fill="#8799ba"/><path d="m115.3 225.1c-1.6 1.6-2.7 5.1-4.8 7.9s-20.9 22.3-23 25.4-12.6 10.3-15.8 13.1-.8 5.5 2.3 3.8c3.1-1.6 2.4-1.3 2.4-1.3s1-.3.4 1.2-1.3 3.4-.2 4.2c1.2.8 3-.1 4.7-2.3 1.7-2.1 25.2-25.2 26.8-27.4s8.3-6.8 9.4-7.6c1-.7 9.2-8.2 10.7-9s5-5.3 2.5-7.1c-.5-.4-.6 0-1.3-.2-.8-.2-6.9-8-14.1-.7zm36.6-41.7s-4.9-4.4-11.2 3.4c-1.9 2.3 1.7 7.3 1.7 7.3s3.7 6.6 10.1-.3c5.8-6.1-.6-10.4-.6-10.4z" fill="#23244c"/><path d="m324 247.8s-27.6-22.4-53.2-52.3c-14-16.4-7-12.2 1-7.6 13.3 7.7 28.6 18.6 56.7 57.4 7.2 9.9-4.5 2.5-4.5 2.5zm19.4-18.1s-32.8-46.4-36.9-52c-4-5.7-11.7-10-20.9-8.2-8.9 1.7-7.4 1.8-6.4 2.8 1.6 1.5-.2 2.1-1.9 1.6s-1.2 1.1.1 2-.4 1.5-1.2 1.3c-1.5-.5-2.2-1.1-.7 1 .7.9-.6.8-1.1.4-1.1-.7-2.8-.5 2.6 3.6 5.2 4 13.5 13.7 45.5 40.1 33.1 27.3 20.9 7.4 20.9 7.4zm-106.6-64.2s-39.4-33.8-52.4-50.8c-12-15.6-4.6-9.1 4.4-4.4 8.9 4.8 41.8 29.9 53.5 42.8 4.3 4.8 5.9 6.3 5.2 12.2-1.1 8.7-10.7.2-10.7.2zm26.9-15.6c1.8-4.6 7.8-8.4-10.3-23.9s-46.6-32.3-46.6-32.3-28.9-18.6-5.1 6.8c23.4 24.9 12.5 18.1 46.1 50.9 8.5 8.3 8.9 9.4 10.2 4.5.4-1.2 3.3.2 5.7-6z" fill="#f9f9f9"/><path d="m279.9 159.3s4 1.7 7.3-6.6c2.7-6.7 11.6-11.7 16.7-15.9 2-1.7 7.2-9.6 11.7-12.1s11.8-9.7 12.6-12.7-2.9-1.8-4.4-1.1.2-1 .2-1 2.7-2.3.2-3.7-10.3 9.5-16.5 13.5c-6.4 4.2-6.1 6.5-12 9.4-8.1 4-23.8 20.4-24.2 24.5-.1.8 1.1.8 1.6.8.3 0 1-.1 1.2.1.4.4.3 1.6.7 2.1.8 1.3 4.9 2.7 4.9 2.7zm-18.2 21c2.9.1 3.2 0 9.2-7.4 3.7-4.6 6.8-5.5 3.8-14.8-2.7-8.2-14 1.6-17 4.3s-8.4 10.5-5.5 13.8c1.1 1.2 2 .3 2.6.6.5.2.6 1.7 1 2.1 1 1.1 4.3 1.3 5.9 1.4z" fill="#23244c"/><path d="m264.5 167.8s2-3.8 3.9-4.2c.6-.1-.1.9-.1.9s-3 2.9-3.2 3.5c-.1.4-.6.2-.6-.2z" fill="#8799ba"/><path d="m252.8 194.3c1.8 0 6.8-3.1 5.9-8.7-.2-1.5-.4-4.6-3.7-6.1s-4.1 1.4-5.4 2c-.2.1-.7 0-.4-.8.3-.7 2.8-3.2.9-6.2-2-3-7.8-4.4-11 4.5-2.2 6.1 5.2 7.1 6.5 6.5 1.2-.6.9-.9 1.4-.7.6.2-.2 1.2-.4 1.6-1.1 2.2.1 7.9 6.2 7.9z" fill="#23244c"/></svg>